<svg width="54" height="54" viewBox="0 0 54 54" fill="none" xmlns="http://www.w3.org/2000/svg"><path d="M26.6903 32.2442C26.0125 29.3813 24.0195 26.9718 21.2754 25.6977C19.924 25.0703 18.4628 24.7518 17 24.7424C17.0856 26.771 17.8343 28.7457 19.1753 30.367C21.0604 32.646 23.9121 33.9803 26.933 33.9998C26.9083 33.4135 26.828 32.8259 26.6903 32.2442ZM26.6903 32.2442C26.1339 29.894 24.6911 27.8494 22.6741 26.4875C22.7081 26.2845 22.749 26.0818 22.7968 25.8799C23.3703 23.4577 24.8852 21.36 27 20C29.1147 21.36 30.6297 23.4577 31.2031 25.8799C31.2509 26.0818 31.2918 26.2845 31.3258 26.4875C29.3088 27.8493 27.8661 29.894 27.3097 32.2442M26.6903 32.2442C26.8279 32.8257 26.9082 33.4131 26.933 33.9992C26.9748 33.9997 27.0166 34 27.0585 34C27.9054 34 28.7394 33.8966 29.5431 33.698C29.5477 33.692 29.5522 33.6859 29.5567 33.6799C28.752 33.8849 27.9162 33.9943 27.067 33.9998M27.3097 32.2442C27.9875 29.3813 29.9805 26.9718 32.7246 25.6977C34.076 25.0703 35.5372 24.7518 37 24.7424C36.9144 26.771 36.1657 28.7457 34.8247 30.367C32.9396 32.646 30.0879 33.9803 27.067 33.9998M27.3097 32.2442C27.172 32.8259 27.0917 33.4135 27.067 33.9998" stroke="#0266C1" stroke-linecap="round" stroke-linejoin="round"/><rect x="0.5" y="0.5" width="53" height="53" stroke="#0266C1"/></svg>