<svg width="54" height="54" viewBox="0 0 54 54" fill="none" xmlns="http://www.w3.org/2000/svg"><g clip-path="url(#clip0_131_2742)"><path d="M34.1429 24.7674H28.7857C27.1091 24.7674 25.75 26.1366 25.75 27.8256C25.75 29.5145 27.1091 30.8837 28.7857 30.8837H31.1071C32.7837 30.8837 34.1429 32.2529 34.1429 33.9419C34.1429 35.6308 32.7837 37 31.1071 37H19.8571M22.7143 31.9302C22.7143 30.3406 21.4351 29.0519 19.8571 29.0519C18.2792 29.0519 17 30.3406 17 31.9302V32.0384C17 32.6695 17.1985 33.2845 17.567 33.7949L19.8515 36.9593C19.8543 36.9632 19.86 36.9632 19.8628 36.9593L22.1473 33.7949C22.5158 33.2845 22.7143 32.6695 22.7143 32.0384V31.9302ZM20.4095 30.7454L20.4266 30.7535C20.7724 30.9183 21.0245 31.2332 21.1111 31.6086C21.1987 31.9881 21.1046 32.3904 20.8608 32.6929C20.6196 32.9921 20.2548 33.1691 19.8723 33.1691H19.842C19.4594 33.1691 19.0946 32.9921 18.8535 32.6929C18.6097 32.3904 18.5156 31.9881 18.6032 31.6086C18.6898 31.2332 18.9419 30.9183 19.2877 30.7535L19.3048 30.7454C19.6545 30.5788 20.0598 30.5788 20.4095 30.7454ZM37 19.8985C37 18.3089 35.7208 17 34.1429 17C32.5649 17 31.2857 18.3089 31.2857 19.8985C31.2857 20.5234 31.4857 21.1384 31.8561 21.6397L34.1372 24.7277C34.14 24.7315 34.1457 24.7315 34.1485 24.7277L36.4297 21.6397C36.8 21.1384 37 20.5234 37 19.8985ZM34.6875 18.6514L34.7262 18.6694C35.0631 18.8263 35.3099 19.1302 35.3957 19.4939C35.4838 19.8669 35.3925 20.26 35.1492 20.5549L35.137 20.5697C34.8999 20.8573 34.548 21.0236 34.1769 21.0236H34.1088C33.7377 21.0236 33.3858 20.8573 33.1487 20.5697L33.1365 20.5549C32.8932 20.26 32.8019 19.8669 32.89 19.4939C32.9758 19.1302 33.2226 18.8263 33.5595 18.6694L33.5983 18.6514C33.9438 18.4905 34.342 18.4905 34.6875 18.6514Z" stroke="#0266C1" stroke-linecap="round"/></g><rect x="0.5" y="0.5" width="53" height="53" stroke="#0266C1"/><defs><clipPath id="clip0_131_2742"><rect width="22" height="22" fill="white" transform="translate(16 16)"/></clipPath></defs></svg>