<svg width="54" height="54" viewBox="0 0 54 54" fill="none" xmlns="http://www.w3.org/2000/svg"><path d="M24.75 26.912L27 29.1562L30.9375 25.2288M27 17C24.6787 18.187 22.0926 18.8181 19.449 18.8181C19.0921 18.8181 18.7363 18.8066 18.382 18.7838C17.9246 20.8703 17.874 23.0414 18.2515 25.1765C18.9272 28.9986 20.9314 32.4612 23.9122 34.9559C24.868 35.7558 25.9045 36.4398 27 37C28.0955 36.4398 29.132 35.7558 30.0878 34.9559C33.0686 32.4612 35.0728 28.9986 35.7485 25.1765C36.126 23.0414 36.0754 20.8703 35.618 18.7838C35.2637 18.8066 34.9078 18.8181 34.5509 18.8181C31.9074 18.8181 29.3212 18.187 27 17Z" stroke="#0266C1"/><rect x="0.5" y="0.5" width="53" height="53" stroke="#0266C1"/></svg>